<svg width="24" height="12" viewBox="0 0 24 12" fill="none" xmlns="http://www.w3.org/2000/svg">
<path d="M13.5927 11.2795L23.9452 0.250125C23.9722 0.229507 23.9908 0.199734 23.9974 0.166405C24.0039 0.133077 23.9981 0.0984877 23.981 0.069141C23.9639 0.0397943 23.9366 0.017712 23.9044 0.00704594C23.8721 -0.00362016 23.8371 -0.00213564 23.8059 0.0112211H0.194149C0.162909 -0.00213564 0.127867 -0.00362016 0.0956101 0.00704594C0.063353 0.017712 0.036103 0.0397943 0.0189841 0.069141C0.00186515 0.0984877 -0.00394355 0.133077 0.00264983 0.166405C0.0092432 0.199734 0.0277846 0.229507 0.0547879 0.250125L10.4073 11.2795C10.612 11.4965 10.8589 11.6693 11.1328 11.7874C11.4066 11.9055 11.7017 11.9664 12 11.9664C12.2983 11.9664 12.5934 11.9055 12.8672 11.7874C13.1411 11.6693 13.388 11.4965 13.5927 11.2795Z" fill="#141414"/>
</svg>
