<svg width="24" height="24" viewBox="0 0 24 24" fill="none" xmlns="http://www.w3.org/2000/svg">
<path fill-rule="evenodd" clip-rule="evenodd" d="M21.5261 12.0466C21.5261 12.1497 21.4392 12.2366 21.3361 12.2366H21.1124H19.4839H3.67079H2.04225H1.8186C1.71546 12.2366 1.6286 12.1497 1.6286 12.0466V9.03486C1.6286 8.93063 1.71546 8.84378 1.8186 8.84378H10.7625H17.4374H21.3361C21.4392 8.84378 21.5261 8.93063 21.5261 9.03486V12.0466ZM19.4839 22.2879C19.4839 22.3313 19.4437 22.3715 19.4003 22.3715H12.3911V13.8651H19.4839V22.2879ZM10.7625 22.3715H3.75439C3.70987 22.3715 3.67079 22.3313 3.67079 22.2879V13.8651H10.7625V22.3715ZM8.01465 1.62826C9.49336 1.62826 10.6952 2.83121 10.6952 4.30884V6.98942H8.01465C6.53702 6.98942 5.33407 5.78647 5.33407 4.30884C5.33407 2.83121 6.53702 1.62826 8.01465 1.62826ZM12.3911 5.92109C12.3911 4.62152 13.4485 3.56514 14.7481 3.56514C16.0488 3.56514 17.1052 4.62152 17.1052 5.92109C17.1052 6.40206 16.9553 6.84393 16.7056 7.21524H12.3911V5.92109ZM21.3361 7.21524H18.5024C18.6458 6.80919 18.7337 6.37709 18.7337 5.92109C18.7337 3.72365 16.9456 1.93552 14.7481 1.93552C13.7232 1.93552 12.7971 2.33614 12.0903 2.97452C11.5247 1.2537 9.92221 -0.000274658 8.01465 -0.000274658C5.63915 -0.000274658 3.70553 1.93334 3.70553 4.30884C3.70553 5.43688 4.15284 6.452 4.86722 7.21524H1.8186C0.815416 7.21524 6.10352e-05 8.03168 6.10352e-05 9.03486V12.0466C6.10352e-05 13.0498 0.815416 13.8651 1.8186 13.8651H2.04225V22.2879C2.04225 23.2325 2.80983 24.0001 3.75439 24.0001H19.4003C20.3449 24.0001 21.1124 23.2325 21.1124 22.2879V13.8651H21.3361C22.3393 13.8651 23.1546 13.0498 23.1546 12.0466V9.03486C23.1546 8.03168 22.3393 7.21524 21.3361 7.21524Z" fill="#141414"/>
</svg>
