<svg width="24" height="18" viewBox="0 0 24 18" fill="none" xmlns="http://www.w3.org/2000/svg">
<path d="M22.98 2.34C22.329 1.182 21.6225 0.969 20.184 0.888C18.747 0.7905 15.1335 0.75 12.003 0.75C8.8665 0.75 5.2515 0.7905 3.816 0.8865C2.3805 0.969 1.6725 1.1805 1.0155 2.34C0.345 3.4965 0 5.4885 0 8.9955C0 8.9985 0 9 0 9C0 9.003 0 9.0045 0 9.0045V9.0075C0 12.4995 0.345 14.5065 1.0155 15.651C1.6725 16.809 2.379 17.019 3.8145 17.1165C5.2515 17.2005 8.8665 17.25 12.003 17.25C15.1335 17.25 18.747 17.2005 20.1855 17.118C21.624 17.0205 22.3305 16.8105 22.9815 15.6525C23.658 14.508 24 12.501 24 9.009C24 9.009 24 9.0045 24 9.0015C24 9.0015 24 8.9985 24 8.997C24 5.4885 23.658 3.4965 22.98 2.34ZM9 13.5V4.5L16.5 9L9 13.5Z" fill="#141414"/>
</svg>
