<svg width="24" height="21" viewBox="0 0 24 21" fill="none" xmlns="http://www.w3.org/2000/svg">
<path d="M21.1835 16.3059C20.3784 16.3059 19.7258 15.6532 19.7258 14.8482V10.0269C19.7258 6.60783 17.5046 3.70795 14.4266 2.69044C14.4351 2.60789 14.4394 2.52422 14.4394 2.43947C14.4394 1.09434 13.3451 0 12 0C10.6549 0 9.56051 1.09434 9.56051 2.43947C9.56051 2.52422 9.56491 2.60789 9.57335 2.69044C6.4954 3.70795 4.27422 6.60783 4.27422 10.0269V14.8482C4.27422 15.6532 3.62158 16.3059 2.81655 16.3059C1.7373 16.3059 0.862427 17.1808 0.862427 18.26C0.862427 19.3393 1.73735 20.2142 2.81655 20.2142H21.1835C22.2627 20.2142 23.1376 19.3393 23.1376 18.26C23.1376 17.1808 22.2627 16.3059 21.1835 16.3059ZM12 1.40625C12.5463 1.40625 12.9946 1.83244 13.0306 2.36972C12.6934 2.32477 12.3495 2.30114 12 2.30114C11.6505 2.30114 11.3066 2.32477 10.9694 2.36972C11.0054 1.83244 11.4537 1.40625 12 1.40625Z" fill="#141414"/>
</svg>
