<svg width="20" height="20" viewBox="0 0 20 20" fill="none" xmlns="http://www.w3.org/2000/svg">
<path d="M20 10C20 15.523 15.523 20 10 20C4.477 20 0 15.523 0 10C0 4.477 4.477 0 10 0C15.523 0 20 4.477 20 10ZM18 10C18 7.87827 17.1571 5.84344 15.6569 4.34315C14.1566 2.84285 12.1217 2 10 2C7.87827 2 5.84344 2.84285 4.34315 4.34315C2.84285 5.84344 2 7.87827 2 10C2 12.1217 2.84285 14.1566 4.34315 15.6569C5.84344 17.1571 7.87827 18 10 18C12.1217 18 14.1566 17.1571 15.6569 15.6569C17.1571 14.1566 18 12.1217 18 10ZM9 16V9H11V16H9ZM10 7.25C9.83683 7.2516 9.67502 7.22018 9.5243 7.15762C9.37359 7.09507 9.23708 7.00267 9.123 6.886C9.00253 6.77246 8.90711 6.63499 8.84288 6.48241C8.77865 6.32984 8.74701 6.16552 8.75 6C8.75 5.652 8.873 5.356 9.122 5.114C9.369 4.872 9.662 4.75 10 4.75C10.337 4.75 10.63 4.872 10.877 5.114C11.125 5.356 11.25 5.652 11.25 6C11.25 6.348 11.126 6.644 10.877 6.886C10.7629 7.00267 10.6264 7.09507 10.4757 7.15762C10.325 7.22018 10.1632 7.2516 10 7.25Z" fill="#141414"/>
</svg>
