<svg width="24" height="24" viewBox="0 0 24 24" fill="none" xmlns="http://www.w3.org/2000/svg">
<path d="M23.0949 0.906398C22.4907 0.302041 21.7667 0 20.9232 0H3.07924C2.23545 0 1.51162 0.302151 0.907265 0.906398C0.303018 1.51048 0.000976562 2.23442 0.000976562 3.07804V20.9218C0.000976562 21.7653 0.302963 22.4894 0.907265 23.0935C1.51162 23.6977 2.23561 24 3.07924 24H20.9229C21.7663 24 22.4905 23.6977 23.0947 23.0935C23.6991 22.4894 24.0009 21.7653 24.0009 20.9218V3.07804C24.0008 2.23425 23.6991 1.5107 23.0949 0.906398ZM8.61843 8.64832C9.56106 7.737 10.6939 7.28112 12.0168 7.28112C13.35 7.28112 14.488 7.737 15.4308 8.64832C16.3737 9.55981 16.8448 10.6615 16.8448 11.9531C16.8448 13.2446 16.3737 14.3463 15.4308 15.2575C14.488 16.1692 13.3504 16.625 12.0168 16.625C10.694 16.625 9.56122 16.1688 8.61843 15.2575C7.67558 14.3462 7.20422 13.2446 7.20422 11.9531C7.20422 10.6615 7.67558 9.55986 8.61843 8.64832ZM21.2825 20.2814C21.2825 20.5521 21.1885 20.7785 21.0012 20.9609C20.8133 21.1432 20.5897 21.2343 20.329 21.2343H3.62618C3.35539 21.2343 3.12866 21.1432 2.94652 20.9609C2.76412 20.7789 2.67299 20.5521 2.67299 20.2814V10.1561H4.87605C4.66781 10.8124 4.56367 11.4948 4.56367 12.203C4.56367 14.2034 5.29275 15.9089 6.75107 17.3206C8.20956 18.7318 9.96473 19.4377 12.0168 19.4377C13.371 19.4377 14.6209 19.1147 15.7671 18.4689C16.9129 17.8227 17.8186 16.9453 18.4858 15.8359C19.1525 14.7264 19.4858 13.5154 19.4858 12.203C19.4858 11.4949 19.3813 10.8126 19.1731 10.1561H21.2827V20.2815H21.2825V20.2814ZM21.2825 6.32793C21.2825 6.63002 21.1784 6.88527 20.9697 7.09357C20.7615 7.30202 20.5064 7.40611 20.2041 7.40611H17.4855C17.1836 7.40611 16.9281 7.30197 16.7199 7.09357C16.5116 6.88527 16.4075 6.63002 16.4075 6.32793V3.75004C16.4075 3.45834 16.5116 3.20578 16.7199 2.99217C16.9282 2.77868 17.1836 2.6718 17.4855 2.6718H20.2041C20.5064 2.6718 20.7615 2.77863 20.9697 2.99217C21.1783 3.20578 21.2825 3.45834 21.2825 3.75004V6.32793Z" fill="#141414"/>
</svg>
