<svg width="145" height="206" viewBox="0 0 145 206" fill="none" xmlns="http://www.w3.org/2000/svg">
<g clip-path="url(#clip0_5_953)">
<path d="M71.5768 165.224H151.101V198H14.2394V166.393L87.6495 102.192C87.6508 102.192 87.6521 102.191 87.6534 102.19C95.9123 95.0312 101.775 88.9237 105.064 83.8934C108.429 78.7471 110.108 72.9973 110.108 66.707C110.108 59.6763 107.567 53.6684 102.53 48.8329C97.3932 43.9016 90.2442 41.5974 81.4375 41.5974C72.8332 41.5974 65.6101 43.7052 59.9794 48.1272C55.1092 51.9167 51.7856 56.7932 50.0304 62.6885H13C14.7929 52.4721 18.4468 43.5106 23.9345 35.7621C30.0896 27.1464 38.0907 20.3683 47.9795 15.4225C58.0193 10.4922 69.4291 8 82.2593 8C95.4689 8 107.061 10.4977 117.094 15.4262L117.109 15.4337L117.124 15.4409C127.162 20.1956 135.038 26.9453 140.811 35.6938L140.817 35.703L140.823 35.7123C146.555 44.2227 149.458 54.2484 149.458 65.8852C149.458 78.2059 146.124 88.8406 139.513 97.8916C132.708 107.022 123.901 116.109 113.06 125.143L113.059 125.144L70.0552 161.026L65.0233 165.224H71.5768Z" fill="#141414" stroke="#808080" stroke-width="5"/>
</g>
<defs>
<clipPath id="clip0_5_953">
<rect width="145" height="206" fill="white"/>
</clipPath>
</defs>
</svg>
