<svg width="145" height="206" viewBox="0 0 145 206" fill="none" xmlns="http://www.w3.org/2000/svg">
<g clip-path="url(#clip0_5_946)">
<path d="M47.1527 191.72C36.4215 187.564 28.0381 181.55 21.9017 173.718C15.997 165.779 13 156.196 13 144.848C13 135.182 15.9535 126.477 21.9009 118.659C28.0163 110.676 36.2621 105.044 46.7404 101.78L53.3968 99.707L46.859 97.2856C37.5951 93.8545 30.5969 88.6772 25.7272 81.8046C20.9894 74.6872 18.6333 66.9276 18.6333 58.4704C18.6333 48.5648 21.3556 39.9409 26.763 32.5057C32.2043 25.0241 39.8062 19.101 49.6706 14.7745L49.6864 14.7675L49.7022 14.7603C59.5277 10.2786 71.0716 8 84.3939 8C97.7163 8 109.261 10.2786 119.086 14.7603L119.102 14.7675L119.117 14.7745C128.982 19.101 136.584 25.0241 142.025 32.5057C147.433 39.9409 150.154 48.5648 150.154 58.4704C150.154 66.9194 147.715 74.6769 142.796 81.8L142.789 81.8101C138.102 88.6733 131.201 93.8517 121.929 97.2856L115.391 99.707L122.048 101.78C132.522 105.043 140.669 110.67 146.601 118.636L146.618 118.659L146.636 118.681C152.755 126.501 155.788 135.198 155.788 144.848C155.788 156.191 152.704 165.772 146.62 173.715L146.616 173.721C140.66 181.548 132.369 187.564 121.628 191.722C110.863 195.889 98.4655 198 84.3939 198C70.5084 198 58.1059 195.891 47.1527 191.72ZM105.649 80.7727L105.67 80.7576L105.69 80.7423C111.679 76.1501 114.667 69.7998 114.667 61.9576C114.667 54.4278 111.644 48.275 105.69 43.7095C99.8443 39.2282 92.696 37.0496 84.3939 37.0496C76.092 37.0496 68.9436 39.2282 63.0984 43.7095C57.1435 48.275 54.1208 54.4278 54.1208 61.9576C54.1208 69.7998 57.1086 76.1501 63.0984 80.7423L63.1331 80.769L63.1688 80.7942C69.1659 85.0502 76.2787 87.1339 84.3939 87.1339C92.6727 87.1339 99.8061 85.0574 105.649 80.7727ZM107.99 161.3L108.01 161.286L108.029 161.273C114.764 156.518 118.155 149.791 118.155 141.36C118.155 133.25 114.735 126.724 108.048 121.996C101.499 117.188 93.5698 114.843 84.3939 114.843C75.218 114.843 67.2884 117.188 60.7405 121.996C54.0536 126.724 50.6336 133.25 50.6336 141.36C50.6336 149.791 54.0242 156.518 60.7595 161.273L60.7788 161.286L60.7984 161.3C67.3426 165.727 75.2503 167.877 84.3939 167.877C93.5376 167.877 101.445 165.727 107.99 161.3Z" fill="#141414" stroke="#808080" stroke-width="5"/>
</g>
<defs>
<clipPath id="clip0_5_946">
<rect width="145" height="206" fill="white"/>
</clipPath>
</defs>
</svg>
