<svg width="145" height="206" viewBox="0 0 145 206" fill="none" xmlns="http://www.w3.org/2000/svg">
<g clip-path="url(#clip0_5_952)">
<path d="M13 30.2595L93.2855 9.2384V193.976H55.6519V53.3736V50.2521L52.6434 51.0846L13 62.0552V30.2595ZM121.797 52.438L121.801 52.4282C127.91 38.1153 136.497 27.2309 147.519 19.6534L147.525 19.649C158.717 11.9007 171.738 8 186.679 8C201.806 8 214.818 11.904 225.819 19.6391L225.829 19.6463L225.84 19.6534C236.861 27.2309 245.448 38.1153 251.557 52.4282L251.562 52.438C257.664 66.5599 260.755 83.3928 260.755 103C260.755 122.604 257.665 139.529 251.559 153.835C245.454 167.965 236.866 178.859 225.829 186.622C214.828 194.182 201.813 198 186.679 198C171.735 198 158.712 194.187 147.522 186.617C136.489 178.855 127.903 167.961 121.799 153.834C115.693 139.528 112.603 122.603 112.603 103C112.603 83.3928 115.695 66.5599 121.797 52.438ZM213.155 148.436L213.158 148.428L213.163 148.42C219.344 137.369 222.317 122.153 222.317 103C222.317 83.8552 219.347 68.7212 213.158 57.84C206.921 46.6921 198.068 40.8051 186.679 40.8051C175.291 40.8051 166.437 46.692 160.2 57.84C154.011 68.7212 151.041 83.8552 151.041 103C151.041 122.153 154.014 137.369 160.196 148.42L160.2 148.428L160.204 148.436C166.452 159.417 175.309 165.195 186.679 165.195C198.05 165.195 206.906 159.417 213.155 148.436Z" fill="#141414" stroke="#808080" stroke-width="5"/>
</g>
<defs>
<clipPath id="clip0_5_952">
<rect width="145" height="206" fill="white"/>
</clipPath>
</defs>
</svg>
