<svg width="145" height="206" viewBox="0 0 145 206" fill="none" xmlns="http://www.w3.org/2000/svg">
<g clip-path="url(#clip0_5_950)">
<path d="M50.9004 56.3636H14.8181C18.716 42.1276 26.2349 30.6979 37.3733 21.9809C49.2015 12.724 64.5635 8 83.6581 8C95.5225 8 106.18 10.1795 115.67 14.4934L115.694 14.5041L115.718 14.5142C125.366 18.6491 132.968 24.6455 138.597 32.4932L138.607 32.507L138.617 32.5205C144.365 40.2966 147.273 49.5355 147.273 60.3481C147.273 69.0238 144.985 76.5918 140.453 83.1388C135.939 89.6573 129.387 94.5695 120.652 97.8236L114.189 100.231L120.764 102.313C131.071 105.577 138.736 111.016 143.936 118.565C149.205 126.213 151.833 134.684 151.833 144.042C151.833 155.402 148.83 164.992 142.914 172.936L142.905 172.949L142.895 172.963C137.095 180.981 129.141 187.161 118.946 191.482C108.733 195.809 97.0741 198 83.9264 198C63.172 198 46.8248 193.341 34.656 184.261C23.1829 175.532 15.9636 163.855 13 149.1H50.4054C52.7253 154.315 56.6962 158.343 62.1818 161.175L62.1953 161.182L62.209 161.188C68.3215 164.245 75.405 165.731 83.3899 165.731C91.45 165.731 98.4527 163.854 104.275 159.977C110.625 155.873 113.663 149.312 113.663 140.823C113.663 133.141 110.648 127.156 104.535 123.273C98.6887 119.384 91.4087 117.525 82.8534 117.525H61.6223V86.5975H81.2439C89.488 86.5975 96.3961 84.6263 101.748 80.4639L101.769 80.4474L101.79 80.4304C107.193 76.0277 109.907 70.1549 109.907 63.0306C109.907 55.4206 107.127 49.4963 101.331 45.7586C95.831 42.0354 88.898 40.2686 80.7074 40.2686C73.2279 40.2686 66.7086 41.8575 61.2607 45.1573C56.3846 47.9502 52.8792 51.6834 50.9004 56.3636Z" fill="#141414" stroke="#808080" stroke-width="5"/>
</g>
<defs>
<clipPath id="clip0_5_950">
<rect width="145" height="206" fill="white"/>
</clipPath>
</defs>
</svg>
