<svg width="145" height="206" viewBox="0 0 145 206" fill="none" xmlns="http://www.w3.org/2000/svg">
<g clip-path="url(#clip0_5_949)">
<path d="M27.261 8H140.508V40.7757H59.6146H57.4395L57.2487 42.9423L53.414 86.494L52.8239 93.196L57.4906 88.3498C62.0035 83.6632 67.3898 80.0096 73.6757 77.3905C79.9253 74.7864 86.9139 73.4645 94.6751 73.4645C105.974 73.4645 115.953 76.1079 124.679 81.3433L124.703 81.3577L124.727 81.3714C133.657 86.449 140.652 93.528 145.74 102.65L145.753 102.674L145.766 102.698C151.003 111.599 153.656 121.947 153.656 133.815C153.656 147.503 150.549 159.092 144.446 168.688C138.29 178.182 130.128 185.469 119.922 190.574C109.685 195.514 98.3602 198 85.9099 198C66.7284 198 50.8715 193.7 38.1975 185.251C26.3796 177.373 18.3169 166.442 14 152.351H53.1027C55.7551 156.284 59.5616 159.307 64.4021 161.459C69.6786 163.804 75.5841 164.95 82.0751 164.95C91.1437 164.95 98.8451 162.331 105 156.97C111.256 151.522 114.306 144.07 114.306 134.91C114.306 125.768 111.265 118.395 104.998 113.122C99.0082 107.746 91.2939 105.144 82.0751 105.144C75.8993 105.144 69.9985 106.401 64.3952 108.913C59.2173 111.235 54.9489 114.258 51.6618 118.019H16.758L27.261 8Z" fill="#141414" stroke="#808080" stroke-width="5"/>
</g>
<defs>
<clipPath id="clip0_5_949">
<rect width="145" height="206" fill="white"/>
</clipPath>
</defs>
</svg>
