<svg width="145" height="206" viewBox="0 0 145 206" fill="none" xmlns="http://www.w3.org/2000/svg">
<g clip-path="url(#clip0_5_948)">
<path d="M48.9258 186.353C37.7142 178.414 29.0412 167.346 22.9367 153.051C17.002 138.557 14 121.533 14 101.927C14 81.7872 17.2694 64.8 23.706 50.8834L23.7105 50.8731C30.1668 36.7392 39.0084 26.1204 50.1938 18.8908C61.5812 11.6462 74.6308 8 89.4177 8C107.476 8 121.668 12.2056 132.226 20.379L132.235 20.3864L132.245 20.3937C142.135 27.8916 149.336 38.3185 153.793 51.8034H115.698C113.351 48.1935 110.123 45.3327 106.075 43.2205C101.543 40.8558 96.1368 39.7321 89.9542 39.7321C78.4806 39.7321 69.1951 44.3728 62.3093 53.5486C55.4306 62.5356 51.8208 76.451 51.0989 94.8595L50.789 102.762L55.4014 96.3376C60.1892 89.6688 66.1535 84.5609 73.3118 80.9817C80.4194 77.4279 89.0682 75.5991 99.343 75.5991C110.028 75.5991 119.713 78.179 128.451 83.3187L128.475 83.3326L128.499 83.3459C137.42 88.3213 144.443 95.256 149.594 104.187L149.609 104.21L149.622 104.234C154.916 112.944 157.592 122.97 157.592 134.385C157.592 147.947 154.382 159.358 148.072 168.737C141.685 178.231 133.418 185.463 123.242 190.465C113.024 195.487 102.117 198 90.4907 198C74.0796 198 60.2654 194.079 48.9258 186.353ZM111.4 157.874L111.415 157.86L111.429 157.846C117.656 152.009 120.764 144.574 120.764 135.727C120.764 126.887 117.661 119.456 111.443 113.62C105.254 107.63 97.5907 104.649 88.6129 104.649C79.7997 104.649 72.1562 107.639 65.8093 113.595C59.4047 119.425 56.1939 126.861 56.1939 135.727C56.1939 144.599 59.4095 152.04 65.8235 157.871L65.8384 157.884L65.8534 157.898C72.2101 163.484 79.8393 166.268 88.6129 166.268C97.5512 166.268 105.2 163.492 111.4 157.874Z" fill="#141414" stroke="#808080" stroke-width="5"/>
</g>
<defs>
<clipPath id="clip0_5_948">
<rect width="145" height="206" fill="white"/>
</clipPath>
</defs>
</svg>
