<svg width="145" height="206" viewBox="0 0 145 206" fill="none" xmlns="http://www.w3.org/2000/svg">
<g clip-path="url(#clip0_5_945)">
<path d="M121.671 19.649L121.688 19.6609L121.705 19.6724C133.078 27.2547 141.737 38.0437 147.657 52.1469C153.588 66.2756 156.592 83.1168 156.592 102.732C156.592 134.098 150.03 157.726 137.251 173.958L137.249 173.961C124.709 189.937 106.934 198 83.5892 198C65.9118 198 51.1107 193.893 39.0587 185.807C28.0234 178.125 20.404 167.623 16.2001 154.196H54.5474C56.7778 157.995 60.0543 160.951 64.286 163.067L64.3382 163.092L64.3917 163.116C69.2281 165.244 74.8435 166.268 81.1749 166.268C92.6137 166.268 101.821 161.833 108.549 152.992L108.557 152.981L108.563 152.972C115.257 143.984 118.773 129.891 119.494 111.139L119.814 102.812L115.152 109.718C110.55 116.537 104.695 121.709 97.5695 125.277C90.4596 128.658 81.7149 130.401 71.2496 130.401C60.3698 130.401 50.5908 127.902 41.8583 122.94C33.0936 117.782 26.0534 110.83 20.7162 102.058C15.5854 93.1549 13 83.1161 13 71.8829C13 58.6855 16.1191 47.4445 22.261 38.0553C28.6513 28.5606 36.9249 21.2369 47.1105 16.0578L47.1174 16.0543L47.1243 16.0508C57.52 10.6796 68.5025 8 80.1019 8C96.7073 8 110.518 11.928 121.671 19.649ZM59.1635 92.6613L59.1768 92.6738L59.1902 92.686C65.5541 98.4714 73.2868 101.351 82.248 101.351C91.0453 101.351 98.6099 98.4607 104.796 92.6613C111.023 86.8233 114.13 79.3885 114.13 70.5416C114.13 61.5395 111.038 54.0856 104.781 48.4082C98.598 42.6181 91.0383 39.7321 82.248 39.7321C73.2875 39.7321 65.5552 42.6115 59.1917 48.396C52.926 54.0749 49.8288 61.533 49.8288 70.5416C49.8288 79.3885 52.9363 86.8233 59.1635 92.6613Z" fill="#141414" stroke="#808080" stroke-width="5"/>
</g>
<defs>
<clipPath id="clip0_5_945">
<rect width="145" height="206" fill="white"/>
</clipPath>
</defs>
</svg>
