<svg xmlns="http://www.w3.org/2000/svg" xmlns:xlink="http://www.w3.org/1999/xlink" width="500" zoomAndPan="magnify" viewBox="0 0 375 374.999991" height="500" preserveAspectRatio="xMidYMid meet" version="1.0"><defs><g/><clipPath id="id1"><path d="M 112.636719 37.5 L 262 37.5 L 262 230.25 L 112.636719 230.25 Z M 112.636719 37.5 " clip-rule="nonzero"/></clipPath></defs><path fill="#ff914d" d="M 191.765625 221.375 C 192.289062 214.160156 190.976562 206.789062 190.875 199.570312 C 190.738281 190.355469 189.230469 181.222656 189.171875 172.003906 C 188.160156 171.964844 187.148438 171.933594 186.148438 171.933594 C 185.039062 171.933594 183.929688 171.933594 182.816406 171.910156 C 182.785156 171.996094 182.757812 172.082031 182.734375 172.171875 C 182.707031 172.277344 182.671875 172.378906 182.632812 172.480469 C 182.730469 172.792969 182.765625 173.117188 182.734375 173.445312 C 182.375 177.71875 183.621094 182.058594 183.621094 186.355469 C 183.621094 190.867188 183.648438 195.382812 183.621094 199.898438 C 183.570312 208.144531 183.210938 216.386719 182.542969 224.617188 C 183.671875 224.617188 184.796875 224.617188 185.917969 224.582031 C 187.25 224.558594 188.578125 224.457031 189.894531 224.273438 C 190.285156 224.222656 190.671875 224.140625 191.050781 224.027344 C 191.175781 223.984375 191.300781 223.933594 191.421875 223.878906 C 191.695312 223.582031 192.015625 223.363281 192.394531 223.222656 C 191.910156 222.699219 191.703125 222.085938 191.765625 221.375 Z M 191.765625 221.375 " fill-opacity="1" fill-rule="nonzero"/><path fill="#10b5b8" d="M 147.667969 65.484375 C 145.90625 65.539062 144.464844 66.023438 143.410156 67.535156 C 142.679688 68.570312 142.390625 69.71875 142.535156 70.976562 C 142.855469 71.089844 143.128906 71.277344 143.351562 71.539062 C 143.574219 71.796875 143.714844 72.097656 143.777344 72.433594 C 145.027344 77.566406 153.898438 74.890625 154.320312 70.429688 C 154.632812 67.203125 150.332031 65.398438 147.667969 65.484375 Z M 147.667969 65.484375 " fill-opacity="1" fill-rule="nonzero"/><path fill="#ff914d" d="M 175.644531 171.550781 C 173.839844 171.710938 171.707031 172.109375 169.796875 171.828125 C 169.714844 172.03125 169.648438 172.234375 169.589844 172.445312 C 169.328125 173.382812 169.101562 174.332031 168.890625 175.28125 C 168.570312 176.863281 168.152344 178.421875 167.644531 179.953125 C 165.664062 185.503906 163.894531 191.152344 161.585938 196.585938 C 159.359375 201.824219 157.109375 207.003906 154.617188 212.128906 C 152.632812 216.21875 150.675781 220.316406 148.960938 224.519531 C 153.429688 224.449219 157.929688 224.382812 162.335938 225.082031 C 165.808594 215.40625 168.214844 205.421875 171.53125 195.703125 C 174.226562 187.816406 174.683594 179.296875 177.816406 171.558594 C 177.09375 171.496094 176.367188 171.492188 175.644531 171.550781 Z M 175.644531 171.550781 " fill-opacity="1" fill-rule="nonzero"/><path fill="#107173" d="M 174.425781 57.273438 C 170.371094 48.554688 160.4375 42.785156 150.90625 42.578125 C 141.089844 42.359375 133.382812 48.097656 128.03125 55.941406 C 124.683594 60.894531 122.164062 66.835938 121.53125 72.78125 C 121.261719 75.359375 121.382812 77.921875 121.898438 80.460938 C 122.417969 83.003906 123.304688 85.410156 124.5625 87.679688 C 124.78125 87.929688 124.9375 88.210938 125.035156 88.527344 C 125.359375 89.078125 125.695312 89.625 126.058594 90.15625 C 126.351562 90.566406 126.492188 91.019531 126.484375 91.519531 C 128.378906 94.367188 131.429688 96.453125 134.464844 97.9375 C 138.507812 99.917969 143.21875 101.503906 147.78125 101.445312 C 158.625 101.324219 168.808594 94.542969 173.449219 84.792969 C 177.355469 76.558594 178.34375 65.683594 174.425781 57.273438 Z M 140.675781 76.875 C 140.59375 76.804688 140.519531 76.734375 140.449219 76.65625 C 135.613281 71.367188 138.160156 62.4375 145.433594 61.027344 C 150.777344 59.992188 158.378906 63.09375 158.957031 69.164062 C 159.816406 78.246094 145.582031 83.566406 140.675781 76.875 Z M 140.675781 76.875 " fill-opacity="1" fill-rule="nonzero"/><path fill="#10b5b8" d="M 212.492188 65.484375 C 210.730469 65.539062 209.292969 66.023438 208.234375 67.535156 C 207.507812 68.570312 207.214844 69.71875 207.359375 70.976562 C 207.683594 71.089844 207.953125 71.277344 208.175781 71.539062 C 208.398438 71.796875 208.542969 72.097656 208.601562 72.433594 C 209.867188 77.566406 218.75 74.902344 219.175781 70.429688 C 219.464844 67.203125 215.171875 65.398438 212.492188 65.484375 Z M 212.492188 65.484375 " fill-opacity="1" fill-rule="nonzero"/><path fill="#107173" d="M 239.265625 57.273438 C 235.203125 48.554688 225.289062 42.785156 215.746094 42.578125 C 205.929688 42.359375 198.222656 48.097656 192.871094 55.941406 C 189.503906 60.894531 186.996094 66.835938 186.367188 72.78125 C 186.09375 75.359375 186.210938 77.921875 186.726562 80.460938 C 187.242188 83.003906 188.125 85.410156 189.378906 87.683594 C 189.601562 87.929688 189.757812 88.214844 189.851562 88.53125 C 190.175781 89.082031 190.519531 89.628906 190.878906 90.164062 C 191.171875 90.570312 191.316406 91.023438 191.304688 91.523438 C 193.199219 94.371094 196.25 96.457031 199.285156 97.941406 C 203.332031 99.921875 208.042969 101.507812 212.609375 101.453125 C 223.449219 101.328125 233.628906 94.546875 238.273438 84.796875 C 242.195312 76.558594 243.179688 65.683594 239.265625 57.273438 Z M 205.507812 76.875 C 205.429688 76.808594 205.355469 76.734375 205.285156 76.65625 C 200.445312 71.367188 203 62.4375 210.265625 61.027344 C 215.617188 59.992188 223.214844 63.09375 223.789062 69.164062 C 224.652344 78.246094 210.414062 83.566406 205.507812 76.875 Z M 205.507812 76.875 " fill-opacity="1" fill-rule="nonzero"/><path fill="#107173" d="M 121.964844 123.5 L 121.882812 123.5 C 121.359375 123.546875 120.882812 123.425781 120.449219 123.128906 L 120.179688 123.128906 C 119.59375 123.15625 119.003906 123.203125 118.421875 123.257812 L 117.613281 123.339844 C 117.421875 124.910156 117.671875 126.484375 117.871094 128.058594 C 119.34375 127.976562 120.921875 127.957031 122.257812 128.359375 C 122.203125 126.75 122.128906 125.121094 121.964844 123.5 Z M 121.964844 123.5 " fill-opacity="1" fill-rule="nonzero"/><path fill="#107173" d="M 230.484375 100.511719 C 223.347656 105.269531 214.578125 107.304688 206.089844 105.285156 C 203.136719 104.589844 200.285156 103.601562 197.535156 102.3125 C 197.339844 102.585938 197.089844 102.792969 196.789062 102.9375 C 196.488281 103.082031 196.167969 103.148438 195.832031 103.128906 L 195.496094 103.128906 C 184.328125 103.128906 172.988281 102.5625 161.871094 103.976562 C 161.222656 104.082031 160.65625 103.917969 160.167969 103.480469 C 157.195312 104.789062 154.09375 105.597656 150.859375 105.90625 C 147.625 106.214844 144.425781 106.003906 141.257812 105.28125 C 137.792969 104.476562 134.480469 103.257812 131.324219 101.621094 C 130.300781 102.46875 128.582031 102.542969 127.808594 101.230469 C 127.621094 101.289062 127.4375 101.355469 127.253906 101.429688 C 126.960938 101.550781 126.6875 101.714844 126.441406 101.914062 C 125.433594 102.824219 124.519531 103.75 124.234375 105.128906 C 123.664062 107.863281 124.347656 110.402344 124.933594 113.0625 C 125.597656 115.988281 126.097656 118.941406 126.4375 121.917969 C 127.125 128.222656 127.1875 134.535156 126.621094 140.851562 C 126.195312 145.484375 124.78125 151.945312 130.355469 153.863281 C 134.941406 155.4375 140.144531 154.195312 144.804688 153.75 C 158.273438 152.476562 171.550781 154.855469 184.988281 155.332031 C 191.921875 155.578125 198.941406 155.378906 205.875 155.121094 C 212.066406 154.886719 218.644531 155.40625 224.601562 153.421875 C 226.351562 152.34375 228.050781 150.96875 228.433594 148.832031 C 228.832031 146.609375 228.378906 144.34375 227.921875 142.15625 C 227.78125 141.621094 227.859375 141.117188 228.15625 140.648438 C 228.066406 140.5625 227.949219 140.4375 227.828125 140.3125 C 227.554688 140.105469 227.347656 139.851562 227.203125 139.539062 C 227.0625 139.230469 227 138.90625 227.023438 138.566406 C 226.996094 138.382812 226.96875 138.203125 226.9375 138.023438 C 226.6875 136.511719 226.460938 134.996094 226.300781 133.472656 C 225.976562 130.433594 225.808594 127.382812 225.792969 124.328125 C 225.789062 124.03125 225.835938 123.742188 225.941406 123.460938 C 226.042969 123.183594 226.195312 122.933594 226.390625 122.710938 C 226.585938 122.488281 226.816406 122.308594 227.082031 122.171875 C 227.347656 122.03125 227.625 121.949219 227.921875 121.914062 C 229.019531 120.160156 231.082031 118.71875 233.054688 118.5625 C 233.191406 112.453125 233.558594 105.949219 230.484375 100.511719 Z M 230.484375 100.511719 " fill-opacity="1" fill-rule="nonzero"/><path fill="#107173" d="M 255.273438 99.027344 C 255.144531 99.105469 255.035156 99.175781 254.988281 99.210938 C 254.121094 99.859375 253.304688 100.566406 252.535156 101.332031 C 250.269531 103.558594 248.140625 105.910156 246.152344 108.390625 C 243.964844 111.007812 241.996094 113.785156 240.253906 116.71875 C 239.539062 117.90625 238.933594 119.144531 238.429688 120.433594 C 238.222656 121.03125 238.113281 121.648438 238.109375 122.28125 C 238.332031 124.5 235.835938 125.253906 234.402344 124.304688 C 233.777344 124.203125 233.304688 123.882812 232.984375 123.339844 L 232.960938 123.308594 C 232.804688 123.40625 232.652344 123.511719 232.507812 123.625 C 232.507812 123.625 232.4375 123.699219 232.34375 123.789062 C 232.25 123.875 232.109375 124.050781 232 124.1875 C 232 124.207031 231.964844 124.253906 231.914062 124.347656 C 231.609375 124.953125 231.128906 125.339844 230.472656 125.507812 C 230.550781 129.46875 230.910156 133.402344 231.539062 137.3125 C 231.636719 137.410156 231.726562 137.511719 231.808594 137.621094 C 231.902344 137.742188 231.984375 137.878906 232.050781 138.019531 C 234.339844 138.171875 234.136719 136.535156 233.949219 134.621094 C 233.722656 132.257812 233.316406 129.953125 233.476562 127.566406 C 233.679688 124.5625 238.273438 125.496094 238.074219 128.457031 C 237.855469 131.617188 239.214844 134.773438 238.542969 137.945312 C 238.367188 138.882812 237.992188 139.734375 237.417969 140.492188 C 237.589844 140.511719 237.757812 140.546875 237.925781 140.601562 C 243.195312 142.246094 245.972656 147 249.558594 150.789062 C 251.097656 152.433594 252.8125 154.308594 254.613281 155.664062 C 255.574219 156.386719 255.535156 156.207031 255.621094 155.027344 C 255.699219 154.011719 255.59375 152.984375 255.574219 151.96875 C 255.558594 151.601562 255.628906 151.25 255.78125 150.914062 C 255.9375 150.578125 256.160156 150.296875 256.453125 150.070312 C 256.539062 141.582031 256.824219 133.113281 256.847656 124.636719 C 256.875 116.199219 258.007812 107.121094 255.273438 99.027344 Z M 255.273438 99.027344 " fill-opacity="1" fill-rule="nonzero"/><path fill="#ff914d" d="M 212.882812 196.449219 C 208.363281 188.808594 204.945312 180.089844 198.902344 173.457031 C 198.453125 172.980469 198.234375 172.414062 198.25 171.757812 C 196.792969 172.007812 195.328125 172.132812 193.847656 172.128906 C 193.871094 173.789062 193.9375 175.449219 194.03125 177.105469 C 194.332031 177.070312 194.621094 177.097656 194.910156 177.191406 C 195.195312 177.28125 195.449219 177.425781 195.675781 177.621094 C 195.898438 177.820312 196.074219 178.054688 196.199219 178.328125 C 196.324219 178.597656 196.390625 178.882812 196.394531 179.183594 C 196.519531 181.78125 198.042969 184.097656 199.207031 186.351562 C 200.554688 188.960938 201.476562 191.746094 202.523438 194.480469 C 204.789062 200.402344 207.140625 206.269531 210.050781 211.914062 C 211.09375 213.882812 211.980469 215.921875 212.710938 218.027344 C 213.019531 218.972656 213.296875 219.9375 213.664062 220.863281 C 213.863281 221.398438 214.105469 221.910156 214.390625 222.402344 C 216.113281 222.660156 218.058594 221.351562 219.675781 220.886719 C 221.433594 220.453125 223.214844 220.261719 225.023438 220.320312 C 220.757812 212.460938 217.433594 204.136719 212.882812 196.449219 Z M 212.882812 196.449219 " fill-opacity="1" fill-rule="nonzero"/><path fill="#ff914d" d="M 199.476562 160.640625 C 199.335938 160.425781 199.226562 160.195312 199.152344 159.953125 C 195.101562 160.011719 191.066406 160.019531 186.992188 160.023438 C 180.734375 160.023438 174.527344 159.425781 168.316406 158.890625 C 168.4375 159.96875 168.53125 161.054688 168.675781 162.132812 C 168.789062 163.308594 169.019531 164.457031 169.371094 165.582031 C 169.480469 165.96875 169.636719 166.335938 169.839844 166.683594 C 170.003906 166.929688 170.292969 167.109375 170.097656 167.109375 C 172.070312 167.445312 174.121094 166.878906 176.101562 166.828125 C 179.078125 166.757812 182.109375 167.253906 185.105469 167.253906 C 189.203125 167.253906 193.386719 167.792969 197.449219 167.144531 C 198.0625 167.101562 198.644531 166.945312 199.195312 166.667969 C 199.070312 166.71875 199.339844 166.328125 199.375 166.144531 C 199.472656 165.671875 199.542969 165.195312 199.578125 164.714844 C 199.628906 163.355469 199.597656 161.996094 199.476562 160.640625 Z M 199.476562 160.640625 " fill-opacity="1" fill-rule="nonzero"/><path fill="#000000" d="M 223.789062 69.164062 C 223.214844 63.09375 215.617188 59.992188 210.265625 61.027344 C 203 62.4375 200.445312 71.367188 205.285156 76.65625 C 205.355469 76.734375 205.429688 76.808594 205.507812 76.875 C 210.414062 83.566406 224.652344 78.246094 223.789062 69.164062 Z M 219.164062 70.4375 C 218.738281 74.898438 209.867188 77.574219 208.613281 72.441406 C 208.554688 72.105469 208.410156 71.808594 208.191406 71.546875 C 207.96875 71.285156 207.695312 71.097656 207.371094 70.984375 C 207.226562 69.726562 207.519531 68.578125 208.25 67.542969 C 209.292969 66.03125 210.730469 65.546875 212.503906 65.492188 C 215.171875 65.398438 219.464844 67.203125 219.175781 70.429688 Z M 219.164062 70.4375 " fill-opacity="1" fill-rule="nonzero"/><g clip-path="url(#id1)"><path fill="#000000" d="M 259.691406 97.480469 C 259.578125 97.089844 259.367188 96.757812 259.058594 96.488281 C 258.75 96.21875 258.394531 96.050781 257.988281 95.992188 C 257.890625 95.53125 257.675781 95.132812 257.339844 94.804688 C 255.445312 92.882812 252.65625 95.035156 251.148438 96.320312 C 248.371094 98.753906 245.820312 101.398438 243.488281 104.261719 C 241.410156 106.730469 239.480469 109.308594 237.699219 111.996094 C 237.554688 107.082031 236.878906 102.261719 234.292969 97.796875 C 234.265625 97.746094 234.230469 97.695312 234.195312 97.648438 C 248.019531 85.367188 251.296875 61.039062 237.902344 47.308594 C 232.441406 41.753906 224.28125 38.476562 216.578125 37.96875 C 209.3125 37.5 202.433594 39.945312 196.851562 44.550781 C 190.257812 49.996094 185.742188 57.566406 183.136719 65.617188 C 182.460938 67.65625 182.007812 69.746094 181.773438 71.878906 C 181.535156 74.011719 181.523438 76.148438 181.734375 78.285156 C 181.945312 80.421875 182.375 82.515625 183.023438 84.5625 C 183.671875 86.609375 184.523438 88.570312 185.582031 90.4375 C 186.664062 93.652344 188.742188 96.292969 191.34375 98.4375 C 183.621094 98.367188 175.839844 98.179688 168.136719 98.683594 L 168.175781 98.652344 C 182.996094 86.765625 186.828125 61.429688 173.046875 47.308594 C 167.605469 41.742188 159.449219 38.464844 151.765625 37.96875 C 144.5 37.5 137.621094 39.945312 132.039062 44.550781 C 125.417969 50.007812 120.902344 57.578125 118.296875 65.632812 C 117.625 67.671875 117.167969 69.757812 116.933594 71.890625 C 116.695312 74.027344 116.683594 76.164062 116.894531 78.300781 C 117.105469 80.4375 117.535156 82.527344 118.1875 84.574219 C 118.835938 86.625 119.691406 88.582031 120.75 90.449219 C 121.683594 93.136719 123.199219 95.445312 125.292969 97.375 C 124.082031 97.964844 122.992188 98.726562 122.019531 99.65625 C 118.296875 103.347656 119.148438 109.359375 120.34375 113.886719 C 120.746094 115.40625 121.070312 116.957031 121.332031 118.523438 C 119.371094 118.191406 116.816406 118.824219 115.140625 118.851562 C 113.363281 118.878906 112.761719 120.5 113.175781 121.820312 C 113.097656 122.027344 113.046875 122.238281 113.019531 122.453125 C 112.664062 125.261719 113.335938 127.929688 113.410156 130.71875 C 113.445312 132.046875 114.6875 132.894531 115.921875 132.871094 C 116.980469 132.851562 120.503906 132.078125 121.03125 133.125 C 121.285156 133.683594 121.710938 134.039062 122.308594 134.195312 C 122.230469 136.785156 121.941406 139.359375 121.882812 141.945312 C 121.84375 144.597656 121.335938 147.199219 121.632812 149.855469 C 122.957031 161.742188 138 159.023438 146.113281 158.347656 C 151.964844 157.855469 157.773438 158.097656 163.566406 158.527344 C 164.0625 161.832031 163.855469 166.359375 165.691406 169.238281 C 164.453125 171.398438 164.195312 174.847656 163.738281 176.75 C 162.488281 181.976562 160.257812 187.238281 158.304688 192.242188 C 153.839844 203.671875 147.636719 214.359375 143.40625 225.878906 C 142.78125 227.597656 143.78125 229.253906 145.683594 229.246094 C 151.578125 229.246094 157.558594 228.800781 163.359375 230.058594 C 164.296875 230.261719 165.554688 229.75 165.914062 228.804688 C 169.597656 218.949219 172.515625 208.851562 175.457031 198.75 C 176.785156 194.191406 177.964844 189.679688 178.929688 185.027344 L 178.929688 185.0625 C 179.015625 189.589844 178.929688 194.125 178.929688 198.648438 C 178.929688 207.9375 178.515625 217.214844 177.6875 226.472656 C 177.546875 228.058594 178.539062 229.238281 180.164062 229.246094 C 182.957031 229.246094 185.746094 229.324219 188.535156 229.117188 C 191.203125 228.917969 194.519531 228.558594 195.480469 225.664062 C 195.726562 225.050781 195.664062 224.46875 195.289062 223.917969 C 195.605469 223.765625 195.859375 223.539062 196.046875 223.242188 C 196.234375 222.945312 196.328125 222.621094 196.332031 222.269531 C 196.867188 214.851562 195.554688 207.410156 195.515625 199.992188 C 195.515625 196.050781 195.207031 192.128906 194.875 188.207031 C 196.226562 190.992188 197.25 193.882812 198.363281 196.777344 C 199.6875 200.253906 201.074219 203.710938 202.554688 207.128906 C 203.941406 210.332031 205.699219 213.359375 207.066406 216.570312 C 208.5625 220.082031 209.253906 226.359375 213.875 227.054688 C 216.273438 227.414062 218.640625 226.140625 220.835938 225.398438 C 222.359375 224.882812 224.359375 225.042969 225.941406 225.011719 C 227.449219 224.980469 228.921875 225.277344 229.996094 224.007812 C 230.273438 223.667969 230.4375 223.28125 230.496094 222.84375 C 230.820312 222.277344 230.886719 221.675781 230.699219 221.050781 C 230.527344 220.5 230.257812 220.007812 229.882812 219.566406 C 225.105469 211.199219 221.554688 202.199219 216.714844 193.859375 C 212.089844 185.882812 208.382812 177.164062 202.171875 170.234375 C 204.789062 167.972656 204.300781 163.371094 204.070312 159.863281 C 205.347656 159.828125 206.59375 159.785156 207.855469 159.734375 C 214.054688 159.484375 220.320312 159.839844 226.285156 157.792969 C 226.539062 157.710938 226.777344 157.585938 226.988281 157.421875 C 229.617188 155.824219 231.851562 153.660156 232.730469 150.628906 C 233.503906 147.996094 233.199219 145.261719 232.683594 142.609375 C 233.597656 142.566406 234.472656 142.371094 235.316406 142.019531 C 235.226562 142.339844 235.203125 142.664062 235.246094 142.992188 C 235.285156 143.324219 235.386719 143.632812 235.550781 143.925781 C 235.710938 144.214844 235.921875 144.464844 236.183594 144.671875 C 236.441406 144.878906 236.734375 145.03125 237.050781 145.125 C 239.917969 146.023438 242.082031 149.082031 243.914062 151.277344 C 245.816406 153.5625 247.910156 155.5625 249.984375 157.679688 C 251.910156 159.660156 254.78125 161.835938 257.609375 160.183594 C 259.433594 159.125 260.046875 157.417969 260.234375 155.5625 C 260.839844 155.085938 261.132812 154.464844 261.113281 153.695312 C 261.113281 143.867188 261.492188 134.054688 261.539062 124.234375 C 261.5625 115.382812 262.589844 106.019531 259.691406 97.480469 Z M 117.871094 128.070312 C 117.671875 126.496094 117.421875 124.921875 117.613281 123.355469 L 118.421875 123.269531 C 119.003906 123.214844 119.59375 123.167969 120.179688 123.140625 L 120.449219 123.140625 C 120.882812 123.4375 121.359375 123.5625 121.882812 123.511719 L 121.964844 123.511719 C 122.109375 125.132812 122.203125 126.761719 122.257812 128.386719 C 120.921875 127.972656 119.34375 127.972656 117.871094 128.070312 Z M 191.308594 91.515625 C 191.320312 91.015625 191.175781 90.5625 190.882812 90.152344 C 190.519531 89.617188 190.175781 89.074219 189.855469 88.523438 C 189.761719 88.207031 189.605469 87.921875 189.382812 87.675781 C 188.128906 85.40625 187.246094 83 186.730469 80.457031 C 186.214844 77.917969 186.09375 75.359375 186.367188 72.78125 C 186.996094 66.835938 189.503906 60.867188 192.871094 55.9375 C 198.222656 48.101562 205.929688 42.351562 215.746094 42.574219 C 225.289062 42.78125 235.203125 48.550781 239.265625 57.265625 C 243.179688 65.679688 242.195312 76.554688 238.277344 84.78125 C 233.632812 94.546875 223.453125 101.316406 212.613281 101.4375 C 208.050781 101.492188 203.335938 99.910156 199.289062 97.925781 C 196.253906 96.449219 193.210938 94.359375 191.308594 91.515625 Z M 125.035156 88.542969 C 124.9375 88.230469 124.78125 87.945312 124.5625 87.695312 C 123.304688 85.425781 122.414062 83.015625 121.898438 80.472656 C 121.378906 77.925781 121.257812 75.363281 121.53125 72.78125 C 122.164062 66.835938 124.683594 60.894531 128.03125 55.941406 C 133.382812 48.105469 141.089844 42.355469 150.90625 42.578125 C 160.453125 42.785156 170.371094 48.554688 174.425781 57.273438 C 178.34375 65.683594 177.355469 76.558594 173.441406 84.789062 C 168.800781 94.550781 158.613281 101.320312 147.773438 101.441406 C 143.210938 101.5 138.5 99.914062 134.457031 97.933594 C 131.421875 96.449219 128.367188 94.359375 126.476562 91.515625 C 126.484375 91.015625 126.34375 90.5625 126.050781 90.152344 C 125.695312 89.617188 125.359375 89.074219 125.035156 88.523438 Z M 171.53125 195.710938 C 168.214844 205.429688 165.808594 215.414062 162.335938 225.089844 C 157.929688 224.390625 153.429688 224.460938 148.960938 224.527344 C 150.664062 220.324219 152.632812 216.226562 154.617188 212.136719 C 157.109375 207.015625 159.359375 201.835938 161.585938 196.59375 C 163.894531 191.160156 165.664062 185.515625 167.644531 179.960938 C 168.152344 178.429688 168.570312 176.871094 168.890625 175.289062 C 169.101562 174.339844 169.316406 173.394531 169.589844 172.453125 C 169.648438 172.246094 169.714844 172.039062 169.796875 171.835938 C 171.707031 172.121094 173.839844 171.71875 175.644531 171.558594 C 176.367188 171.5 177.09375 171.5 177.816406 171.558594 C 174.683594 179.308594 174.226562 187.835938 171.53125 195.710938 Z M 191.421875 223.855469 C 191.300781 223.914062 191.175781 223.964844 191.050781 224.003906 C 190.671875 224.121094 190.289062 224.203125 189.894531 224.25 C 188.578125 224.433594 187.25 224.539062 185.917969 224.5625 C 184.796875 224.601562 183.671875 224.601562 182.542969 224.59375 C 183.210938 216.371094 183.570312 208.128906 183.621094 199.878906 C 183.652344 195.359375 183.621094 190.847656 183.621094 186.332031 C 183.621094 182.035156 182.375 177.699219 182.734375 173.421875 C 182.765625 173.09375 182.730469 172.773438 182.632812 172.457031 C 182.671875 172.359375 182.707031 172.253906 182.734375 172.148438 C 182.757812 172.0625 182.785156 171.976562 182.816406 171.890625 C 183.929688 171.890625 185.039062 171.890625 186.148438 171.910156 C 187.148438 171.910156 188.160156 171.945312 189.171875 171.984375 C 189.226562 181.199219 190.734375 190.332031 190.875 199.550781 C 190.976562 206.769531 192.289062 214.152344 191.765625 221.355469 C 191.703125 222.0625 191.910156 222.679688 192.394531 223.203125 C 192.015625 223.339844 191.695312 223.558594 191.421875 223.855469 Z M 185.125 167.25 C 182.144531 167.25 179.09375 166.761719 176.117188 166.824219 C 174.136719 166.875 172.085938 167.441406 170.117188 167.105469 C 170.3125 167.105469 170.023438 166.921875 169.855469 166.679688 C 169.65625 166.332031 169.5 165.964844 169.386719 165.578125 C 169.035156 164.453125 168.804688 163.300781 168.695312 162.128906 C 168.550781 161.050781 168.457031 159.964844 168.332031 158.886719 C 174.542969 159.421875 180.753906 160.019531 187.007812 160.019531 C 191.0625 160.019531 195.117188 160.019531 199.171875 159.945312 C 199.242188 160.191406 199.351562 160.421875 199.492188 160.636719 C 199.613281 161.988281 199.648438 163.347656 199.601562 164.707031 C 199.5625 165.1875 199.496094 165.664062 199.394531 166.136719 C 199.363281 166.320312 199.09375 166.710938 199.21875 166.660156 C 198.667969 166.933594 198.085938 167.09375 197.472656 167.136719 C 193.386719 167.789062 189.203125 167.253906 185.125 167.25 Z M 212.902344 196.449219 C 217.453125 204.136719 220.777344 212.460938 225.039062 220.300781 C 223.230469 220.246094 221.449219 220.4375 219.695312 220.871094 C 218.078125 221.335938 216.132812 222.640625 214.40625 222.386719 C 214.121094 221.894531 213.878906 221.378906 213.679688 220.847656 C 213.3125 219.921875 213.039062 218.957031 212.726562 218.011719 C 212 215.902344 211.113281 213.867188 210.066406 211.894531 C 207.160156 206.253906 204.804688 200.386719 202.542969 194.464844 C 201.492188 191.730469 200.570312 188.945312 199.226562 186.332031 C 198.058594 184.078125 196.535156 181.765625 196.410156 179.167969 C 196.40625 178.867188 196.34375 178.582031 196.21875 178.308594 C 196.09375 178.039062 195.917969 177.804688 195.691406 177.605469 C 195.46875 177.40625 195.210938 177.261719 194.925781 177.171875 C 194.640625 177.082031 194.347656 177.054688 194.050781 177.085938 C 193.957031 175.429688 193.886719 173.769531 193.867188 172.109375 C 195.34375 172.113281 196.8125 171.992188 198.269531 171.742188 C 198.25 172.394531 198.46875 172.960938 198.917969 173.441406 C 204.945312 180.089844 208.363281 188.804688 212.882812 196.449219 Z M 227.933594 121.917969 C 227.640625 121.953125 227.359375 122.035156 227.09375 122.175781 C 226.832031 122.3125 226.601562 122.492188 226.402344 122.714844 C 226.207031 122.9375 226.054688 123.1875 225.953125 123.46875 C 225.851562 123.746094 225.800781 124.035156 225.808594 124.332031 C 225.8125 127.394531 225.972656 130.445312 226.289062 133.492188 C 226.449219 135.015625 226.675781 136.53125 226.925781 138.042969 C 226.957031 138.222656 226.980469 138.40625 227.011719 138.585938 C 226.988281 138.925781 227.046875 139.253906 227.191406 139.5625 C 227.335938 139.871094 227.542969 140.128906 227.816406 140.332031 C 227.933594 140.460938 228.054688 140.582031 228.144531 140.667969 C 227.84375 141.136719 227.765625 141.640625 227.910156 142.179688 C 228.363281 144.367188 228.820312 146.628906 228.421875 148.851562 C 228.042969 150.976562 226.34375 152.363281 224.589844 153.441406 C 218.628906 155.425781 212.0625 154.90625 205.859375 155.140625 C 198.925781 155.398438 191.910156 155.601562 184.976562 155.351562 C 171.539062 154.878906 158.261719 152.484375 144.789062 153.769531 C 140.109375 154.195312 134.929688 155.46875 130.34375 153.882812 C 124.769531 151.964844 126.183594 145.503906 126.605469 140.871094 C 127.175781 134.554688 127.113281 128.246094 126.421875 121.941406 C 126.085938 118.960938 125.582031 116.007812 124.921875 113.085938 C 124.332031 110.421875 123.644531 107.882812 124.222656 105.148438 C 124.507812 103.769531 125.417969 102.84375 126.429688 101.933594 C 126.675781 101.734375 126.945312 101.574219 127.242188 101.453125 C 127.425781 101.375 127.605469 101.3125 127.792969 101.25 C 128.570312 102.5625 130.289062 102.503906 131.308594 101.640625 C 134.46875 103.277344 137.777344 104.496094 141.246094 105.300781 C 144.410156 106.027344 147.613281 106.234375 150.847656 105.925781 C 154.082031 105.617188 157.183594 104.8125 160.15625 103.503906 C 160.644531 103.9375 161.210938 104.105469 161.859375 104 C 172.960938 102.582031 184.296875 103.148438 195.484375 103.148438 L 195.820312 103.148438 C 196.15625 103.167969 196.472656 103.105469 196.777344 102.960938 C 197.078125 102.816406 197.328125 102.605469 197.523438 102.335938 C 200.269531 103.621094 203.125 104.613281 206.078125 105.304688 C 214.566406 107.324219 223.332031 105.304688 230.472656 100.535156 C 233.542969 105.96875 233.179688 112.472656 233.027344 118.585938 C 231.09375 118.722656 229.015625 120.164062 227.917969 121.917969 Z M 256.878906 124.59375 C 256.851562 133.085938 256.566406 141.550781 256.484375 150.03125 C 256.191406 150.257812 255.96875 150.535156 255.8125 150.871094 C 255.65625 151.207031 255.589844 151.558594 255.605469 151.925781 C 255.605469 152.941406 255.730469 153.96875 255.652344 154.984375 C 255.5625 156.164062 255.605469 156.34375 254.644531 155.621094 C 252.84375 154.265625 251.128906 152.390625 249.585938 150.746094 C 246.003906 146.925781 243.222656 142.1875 237.953125 140.558594 C 237.789062 140.503906 237.621094 140.46875 237.449219 140.453125 C 238.023438 139.691406 238.398438 138.839844 238.570312 137.902344 C 239.246094 134.734375 237.886719 131.574219 238.101562 128.414062 C 238.304688 125.441406 233.710938 124.523438 233.507812 127.523438 C 233.34375 129.910156 233.753906 132.214844 233.980469 134.578125 C 234.167969 136.511719 234.371094 138.144531 232.082031 137.976562 C 232.015625 137.835938 231.933594 137.703125 231.839844 137.578125 C 231.757812 137.46875 231.667969 137.367188 231.570312 137.269531 C 230.9375 133.367188 230.582031 129.4375 230.5 125.480469 C 231.160156 125.3125 231.640625 124.929688 231.945312 124.324219 C 231.996094 124.230469 232.019531 124.183594 232.03125 124.160156 C 232.140625 124.023438 232.253906 123.890625 232.375 123.761719 C 232.492188 123.632812 232.519531 123.617188 232.535156 123.601562 C 232.683594 123.484375 232.832031 123.378906 232.992188 123.28125 L 233.011719 123.316406 C 233.335938 123.855469 233.808594 124.179688 234.429688 124.28125 C 235.863281 125.238281 238.363281 124.476562 238.136719 122.253906 C 238.144531 121.621094 238.25 121.003906 238.460938 120.40625 C 238.960938 119.117188 239.570312 117.878906 240.28125 116.691406 C 242.027344 113.757812 243.992188 110.984375 246.183594 108.363281 C 248.171875 105.886719 250.296875 103.53125 252.566406 101.308594 C 253.335938 100.542969 254.152344 99.835938 255.019531 99.183594 C 255.066406 99.148438 255.175781 99.078125 255.304688 99 C 258.007812 107.121094 256.875 116.199219 256.847656 124.578125 Z M 256.878906 124.59375 " fill-opacity="1" fill-rule="nonzero"/></g><path fill="#000000" d="M 158.957031 69.164062 C 158.378906 63.09375 150.777344 59.992188 145.433594 61.027344 C 138.160156 62.4375 135.613281 71.367188 140.449219 76.65625 C 140.519531 76.734375 140.59375 76.804688 140.675781 76.875 C 145.582031 83.566406 159.816406 78.246094 158.957031 69.164062 Z M 154.324219 70.4375 C 153.898438 74.898438 145.03125 77.574219 143.78125 72.441406 C 143.71875 72.105469 143.578125 71.808594 143.355469 71.546875 C 143.132812 71.285156 142.863281 71.097656 142.539062 70.984375 C 142.394531 69.726562 142.683594 68.578125 143.414062 67.542969 C 144.453125 66.03125 145.890625 65.546875 147.671875 65.492188 C 150.332031 65.398438 154.632812 67.203125 154.324219 70.429688 Z M 154.324219 70.4375 " fill-opacity="1" fill-rule="nonzero"/><g fill="#ffffff" fill-opacity="1"><g transform="translate(70.078125, 277.950788)"><g><path d="M 34.875 -16.59375 C 34.828125 -20.664062 34.3125 -25.664062 31.039062 -28.515625 C 27.441406 -31.695312 23.933594 -30.011719 21.222656 -26.785156 C 21.128906 -26.925781 20.988281 -27.113281 20.894531 -27.300781 C 18.371094 -31.179688 13.042969 -30.898438 9.957031 -27.910156 C 6.636719 -24.636719 4.957031 -19.308594 3.972656 -14.914062 C 2.945312 -10.097656 2.617188 -5.140625 2.335938 -0.234375 C 2.058594 4.253906 9.070312 4.253906 9.347656 -0.234375 C 9.675781 -6.125 10.050781 -12.109375 12.0625 -17.71875 C 12.527344 -18.933594 13.042969 -20.148438 13.742188 -21.316406 C 13.976562 -21.691406 14.585938 -22.953125 15.144531 -23.09375 C 15.144531 -23.09375 15.191406 -23.09375 15.191406 -23.140625 C 15.191406 -23.046875 15.191406 -23 15.285156 -22.90625 C 15.847656 -22.160156 15.660156 -19.960938 15.707031 -19.074219 C 15.753906 -17.390625 15.660156 -15.660156 15.472656 -13.976562 C 15.097656 -10.097656 21.738281 -9.164062 22.390625 -13.042969 C 22.765625 -15.566406 23.5625 -17.902344 24.917969 -20.054688 C 25.382812 -20.710938 26.414062 -21.550781 27.019531 -22.34375 C 27.113281 -21.597656 27.488281 -20.847656 27.582031 -20.101562 C 28.703125 -13.929688 27.488281 -7.058594 26.878906 -0.839844 C 26.414062 3.644531 33.425781 3.597656 33.890625 -0.839844 C 34.40625 -6.078125 34.96875 -11.359375 34.875 -16.59375 Z M 34.875 -16.59375 "/></g></g></g><g fill="#ffffff" fill-opacity="1"><g transform="translate(107.334741, 277.950788)"><g><path d="M 25.992188 -28.515625 C 22.160156 -34.828125 12.15625 -35.621094 7.152344 -30.527344 C 2.242188 -26.320312 1.542969 -16.546875 2.945312 -11.078125 C 3.925781 -7.339844 6.40625 -3.414062 10.238281 -2.195312 C 14.210938 -0.886719 18.605469 -2.335938 21.738281 -4.910156 C 24.917969 -7.574219 26.878906 -11.453125 27.535156 -15.519531 C 28.140625 -19.539062 28.1875 -24.917969 25.992188 -28.515625 Z M 17.484375 -10.332031 C 17.34375 -10.238281 17.25 -10.144531 17.109375 -10.003906 C 15.613281 -8.742188 13.230469 -8.226562 11.640625 -9.441406 C 10.613281 -10.191406 10.144531 -11.453125 9.816406 -12.667969 C 9.347656 -14.679688 9.257812 -16.78125 9.488281 -18.839844 C 9.722656 -20.710938 10.191406 -23.09375 11.265625 -24.636719 C 12.246094 -25.992188 13.882812 -26.832031 15.566406 -26.878906 C 18.464844 -26.925781 20.335938 -24.964844 20.664062 -22.25 C 21.222656 -18.136719 20.617188 -13.324219 17.484375 -10.332031 Z M 17.484375 -10.332031 "/></g></g></g><g fill="#ffffff" fill-opacity="1"><g transform="translate(137.579448, 277.950788)"><g><path d="M 20.476562 -24.730469 C 18.605469 -19.820312 16.546875 -14.960938 14.398438 -10.191406 C 12.246094 -15.519531 10.9375 -21.363281 9.257812 -26.644531 C 7.898438 -30.945312 1.121094 -29.125 2.476562 -24.777344 C 5.046875 -16.734375 6.871094 -7.667969 11.453125 -0.421875 C 12.761719 1.636719 16.269531 2.058594 17.484375 -0.421875 C 21.082031 -7.761719 24.355469 -15.238281 27.207031 -22.859375 C 28.796875 -27.113281 22.066406 -28.9375 20.476562 -24.730469 Z M 20.476562 -24.730469 "/></g></g></g><g fill="#ffffff" fill-opacity="1"><g transform="translate(167.403447, 277.950788)"><g><path d="M 4.441406 -28.75 C 3.507812 -20.335938 2.804688 -11.875 2.335938 -3.367188 C 2.058594 1.121094 9.070312 1.121094 9.347656 -3.367188 C 9.816406 -11.875 10.519531 -20.335938 11.453125 -28.75 C 11.921875 -33.238281 4.910156 -33.191406 4.441406 -28.75 Z M 4.441406 -28.75 "/></g></g></g><g fill="#ffffff" fill-opacity="1"><g transform="translate(181.24028, 277.950788)"><g><path d="M 19.492188 -9.863281 C 16.269531 -9.957031 13.042969 -9.863281 9.863281 -9.535156 C 10.097656 -11.3125 10.378906 -13.089844 10.613281 -14.914062 C 12.199219 -14.914062 13.789062 -14.820312 15.378906 -14.679688 C 17.296875 -14.492188 18.886719 -16.410156 18.886719 -18.183594 C 18.886719 -20.242188 17.296875 -21.503906 15.378906 -21.691406 C 14.164062 -21.785156 12.949219 -21.878906 11.6875 -21.878906 C 11.96875 -23.699219 12.292969 -25.523438 12.574219 -27.300781 C 14.960938 -27.300781 17.296875 -27.253906 19.679688 -27.066406 C 24.167969 -26.785156 24.167969 -33.796875 19.679688 -34.078125 C 16.316406 -34.3125 12.902344 -34.359375 9.535156 -34.265625 C 8.226562 -34.21875 7.292969 -33.566406 6.730469 -32.722656 C 6.496094 -32.347656 6.3125 -31.882812 6.21875 -31.320312 C 4.675781 -22.765625 3.414062 -14.164062 2.335938 -5.515625 C 2.011719 -3.039062 4.816406 -1.824219 6.777344 -2.148438 C 10.984375 -2.804688 15.238281 -2.992188 19.492188 -2.851562 C 23.980469 -2.664062 23.980469 -9.675781 19.492188 -9.863281 Z M 19.492188 -9.863281 "/></g></g></g><g fill="#ffffff" fill-opacity="1"><g transform="translate(206.6234, 277.950788)"><g/></g></g><g fill="#ffffff" fill-opacity="1"><g transform="translate(220.834203, 277.950788)"><g><path d="M 20.617188 -19.632812 C 15.613281 -19.726562 10.660156 -19.867188 5.703125 -19.960938 C 1.167969 -20.054688 1.167969 -13.042969 5.703125 -12.949219 C 10.660156 -12.855469 15.613281 -12.714844 20.617188 -12.621094 C 25.101562 -12.527344 25.101562 -19.539062 20.617188 -19.632812 Z M 20.617188 -19.632812 "/></g></g></g><g fill="#ffffff" fill-opacity="1"><g transform="translate(247.152237, 277.950788)"><g/></g></g><g fill="#ffffff" fill-opacity="1"><g transform="translate(261.363041, 277.950788)"><g><path d="M 4.441406 -28.75 C 3.507812 -20.335938 2.804688 -11.875 2.335938 -3.367188 C 2.058594 1.121094 9.070312 1.121094 9.347656 -3.367188 C 9.816406 -11.875 10.519531 -20.335938 11.453125 -28.75 C 11.921875 -33.238281 4.910156 -33.191406 4.441406 -28.75 Z M 4.441406 -28.75 "/></g></g></g><g fill="#ffffff" fill-opacity="1"><g transform="translate(275.199862, 277.950788)"><g><path d="M 20.570312 -28.28125 C 19.820312 -23.234375 18.933594 -18.230469 17.996094 -13.230469 L 13.835938 -22.71875 C 12.621094 -25.617188 8.179688 -24.589844 7.433594 -21.878906 C 5.46875 -14.585938 3.785156 -7.246094 2.382812 0.1875 C 1.542969 4.582031 8.320312 6.496094 9.164062 2.058594 C 9.910156 -2.058594 10.796875 -6.125 11.734375 -10.191406 C 13.230469 -6.777344 14.679688 -3.367188 16.175781 0 C 17.390625 2.804688 21.972656 1.964844 22.578125 -0.792969 C 24.449219 -9.304688 26.039062 -17.8125 27.300781 -26.414062 C 27.953125 -30.851562 21.175781 -32.722656 20.570312 -28.28125 Z M 20.570312 -28.28125 "/></g></g></g><g fill="#ff1616" fill-opacity="1"><g transform="translate(41.360099, 307.819908)"><g><path d="M 16.21875 0 L 14.09375 0 L 14.078125 -10.203125 L 9.765625 -1.421875 L 8.265625 -1.421875 L 3.953125 -10.203125 L 3.953125 0 L 1.796875 0 L 1.796875 -13.65625 L 4.53125 -13.65625 L 9.03125 -4.578125 L 13.515625 -13.65625 L 16.21875 -13.65625 Z M 16.21875 0 "/></g></g></g><g fill="#ff1616" fill-opacity="1"><g transform="translate(64.272049, 307.819908)"><g><path d="M 2.75 -11.71875 C 4.144531 -13.039062 5.859375 -13.703125 7.890625 -13.703125 C 9.929688 -13.703125 11.644531 -13.039062 13.03125 -11.71875 C 14.425781 -10.40625 15.125 -8.773438 15.125 -6.828125 C 15.125 -4.878906 14.425781 -3.238281 13.03125 -1.90625 C 11.644531 -0.570312 9.929688 0.09375 7.890625 0.09375 C 5.859375 0.09375 4.144531 -0.570312 2.75 -1.90625 C 1.351562 -3.238281 0.65625 -4.878906 0.65625 -6.828125 C 0.65625 -8.773438 1.351562 -10.40625 2.75 -11.71875 Z M 7.921875 -11.640625 C 6.566406 -11.640625 5.40625 -11.175781 4.4375 -10.25 C 3.476562 -9.320312 3 -8.179688 3 -6.828125 C 3 -5.472656 3.484375 -4.320312 4.453125 -3.375 C 5.421875 -2.4375 6.570312 -1.96875 7.90625 -1.96875 C 9.25 -1.96875 10.394531 -2.4375 11.34375 -3.375 C 12.289062 -4.320312 12.765625 -5.472656 12.765625 -6.828125 C 12.765625 -8.179688 12.289062 -9.320312 11.34375 -10.25 C 10.394531 -11.175781 9.253906 -11.640625 7.921875 -11.640625 Z M 7.921875 -11.640625 "/></g></g></g><g fill="#ff1616" fill-opacity="1"><g transform="translate(84.941534, 307.819908)"><g><path d="M 7.875 0 L 5.5 0 L 0.0625 -13.65625 L 2.53125 -13.65625 L 6.75 -2.546875 L 11 -13.65625 L 13.390625 -13.65625 Z M 7.875 0 "/></g></g></g><g fill="#ff1616" fill-opacity="1"><g transform="translate(103.271084, 307.819908)"><g><path d="M 4.09375 0 L 1.796875 0 L 1.796875 -13.65625 L 4.09375 -13.65625 Z M 4.09375 0 "/></g></g></g><g fill="#ff1616" fill-opacity="1"><g transform="translate(114.034801, 307.819908)"><g><path d="M 11.546875 -11.578125 L 4.09375 -11.578125 L 4.09375 -7.890625 L 10.765625 -7.890625 L 10.765625 -5.828125 L 4.09375 -5.828125 L 4.09375 -2.0625 L 11.78125 -2.0625 L 11.78125 0 L 1.796875 0 L 1.796875 -13.65625 L 11.546875 -13.65625 Z M 11.546875 -11.578125 "/></g></g></g><g fill="#ff1616" fill-opacity="1"><g transform="translate(131.701364, 307.819908)"><g/></g></g><g fill="#ff1616" fill-opacity="1"><g transform="translate(141.607107, 307.819908)"><g><path d="M 4.09375 0 L 1.796875 0 L 1.796875 -13.65625 L 4.09375 -13.65625 Z M 4.09375 0 "/></g></g></g><g fill="#ff1616" fill-opacity="1"><g transform="translate(152.370824, 307.819908)"><g><path d="M 13.625 0 L 11.375 0 L 4.09375 -9.78125 L 4.09375 0 L 1.796875 0 L 1.796875 -13.65625 L 4.0625 -13.65625 L 11.375 -3.84375 L 11.375 -13.65625 L 13.625 -13.65625 Z M 13.625 0 "/></g></g></g><g fill="#ff1616" fill-opacity="1"><g transform="translate(172.689338, 307.819908)"><g><path d="M 10.9375 -11.578125 L 4.09375 -11.578125 L 4.09375 -7.640625 L 10.296875 -7.640625 L 10.296875 -5.59375 L 4.09375 -5.59375 L 4.09375 0 L 1.796875 0 L 1.796875 -13.65625 L 10.953125 -13.65625 Z M 10.9375 -11.578125 "/></g></g></g><g fill="#ff1616" fill-opacity="1"><g transform="translate(188.776447, 307.819908)"><g><path d="M 2.75 -11.71875 C 4.144531 -13.039062 5.859375 -13.703125 7.890625 -13.703125 C 9.929688 -13.703125 11.644531 -13.039062 13.03125 -11.71875 C 14.425781 -10.40625 15.125 -8.773438 15.125 -6.828125 C 15.125 -4.878906 14.425781 -3.238281 13.03125 -1.90625 C 11.644531 -0.570312 9.929688 0.09375 7.890625 0.09375 C 5.859375 0.09375 4.144531 -0.570312 2.75 -1.90625 C 1.351562 -3.238281 0.65625 -4.878906 0.65625 -6.828125 C 0.65625 -8.773438 1.351562 -10.40625 2.75 -11.71875 Z M 7.921875 -11.640625 C 6.566406 -11.640625 5.40625 -11.175781 4.4375 -10.25 C 3.476562 -9.320312 3 -8.179688 3 -6.828125 C 3 -5.472656 3.484375 -4.320312 4.453125 -3.375 C 5.421875 -2.4375 6.570312 -1.96875 7.90625 -1.96875 C 9.25 -1.96875 10.394531 -2.4375 11.34375 -3.375 C 12.289062 -4.320312 12.765625 -5.472656 12.765625 -6.828125 C 12.765625 -8.179688 12.289062 -9.320312 11.34375 -10.25 C 10.394531 -11.175781 9.253906 -11.640625 7.921875 -11.640625 Z M 7.921875 -11.640625 "/></g></g></g><g fill="#ff1616" fill-opacity="1"><g transform="translate(209.445932, 307.819908)"><g><path d="M 10.453125 0 L 7.953125 -4.140625 C 7.828125 -4.117188 7.617188 -4.109375 7.328125 -4.109375 L 4.09375 -4.109375 L 4.09375 0 L 1.796875 0 L 1.796875 -13.65625 L 7.328125 -13.65625 C 9.066406 -13.65625 10.414062 -13.25 11.375 -12.4375 C 12.34375 -11.625 12.828125 -10.472656 12.828125 -8.984375 C 12.828125 -7.890625 12.582031 -6.96875 12.09375 -6.21875 C 11.613281 -5.46875 10.914062 -4.914062 10 -4.5625 L 13.0625 0 Z M 4.09375 -6.1875 L 7.328125 -6.1875 C 9.535156 -6.1875 10.640625 -7.101562 10.640625 -8.9375 C 10.640625 -10.695312 9.535156 -11.578125 7.328125 -11.578125 L 4.09375 -11.578125 Z M 4.09375 -6.1875 "/></g></g></g><g fill="#ff1616" fill-opacity="1"><g transform="translate(228.418957, 307.819908)"><g><path d="M 16.21875 0 L 14.09375 0 L 14.078125 -10.203125 L 9.765625 -1.421875 L 8.265625 -1.421875 L 3.953125 -10.203125 L 3.953125 0 L 1.796875 0 L 1.796875 -13.65625 L 4.53125 -13.65625 L 9.03125 -4.578125 L 13.515625 -13.65625 L 16.21875 -13.65625 Z M 16.21875 0 "/></g></g></g><g fill="#ff1616" fill-opacity="1"><g transform="translate(251.330907, 307.819908)"><g><path d="M 10.609375 -3.078125 L 3.71875 -3.078125 L 2.421875 0 L 0.015625 0 L 6.046875 -13.65625 L 8.40625 -13.65625 L 14.375 0 L 11.921875 0 Z M 9.734375 -5.125 L 7.15625 -11.1875 L 4.578125 -5.125 Z M 9.734375 -5.125 "/></g></g></g><g fill="#ff1616" fill-opacity="1"><g transform="translate(270.596436, 307.819908)"><g><path d="M 11.109375 -11.578125 L 6.78125 -11.578125 L 6.78125 0 L 4.484375 0 L 4.484375 -11.578125 L 0.171875 -11.578125 L 0.171875 -13.65625 L 11.109375 -13.65625 Z M 11.109375 -11.578125 "/></g></g></g><g fill="#ff1616" fill-opacity="1"><g transform="translate(286.761525, 307.819908)"><g><path d="M 4.09375 0 L 1.796875 0 L 1.796875 -13.65625 L 4.09375 -13.65625 Z M 4.09375 0 "/></g></g></g><g fill="#ff1616" fill-opacity="1"><g transform="translate(297.525242, 307.819908)"><g><path d="M 2.75 -11.71875 C 4.144531 -13.039062 5.859375 -13.703125 7.890625 -13.703125 C 9.929688 -13.703125 11.644531 -13.039062 13.03125 -11.71875 C 14.425781 -10.40625 15.125 -8.773438 15.125 -6.828125 C 15.125 -4.878906 14.425781 -3.238281 13.03125 -1.90625 C 11.644531 -0.570312 9.929688 0.09375 7.890625 0.09375 C 5.859375 0.09375 4.144531 -0.570312 2.75 -1.90625 C 1.351562 -3.238281 0.65625 -4.878906 0.65625 -6.828125 C 0.65625 -8.773438 1.351562 -10.40625 2.75 -11.71875 Z M 7.921875 -11.640625 C 6.566406 -11.640625 5.40625 -11.175781 4.4375 -10.25 C 3.476562 -9.320312 3 -8.179688 3 -6.828125 C 3 -5.472656 3.484375 -4.320312 4.453125 -3.375 C 5.421875 -2.4375 6.570312 -1.96875 7.90625 -1.96875 C 9.25 -1.96875 10.394531 -2.4375 11.34375 -3.375 C 12.289062 -4.320312 12.765625 -5.472656 12.765625 -6.828125 C 12.765625 -8.179688 12.289062 -9.320312 11.34375 -10.25 C 10.394531 -11.175781 9.253906 -11.640625 7.921875 -11.640625 Z M 7.921875 -11.640625 "/></g></g></g><g fill="#ff1616" fill-opacity="1"><g transform="translate(318.194727, 307.819908)"><g><path d="M 13.625 0 L 11.375 0 L 4.09375 -9.78125 L 4.09375 0 L 1.796875 0 L 1.796875 -13.65625 L 4.0625 -13.65625 L 11.375 -3.84375 L 11.375 -13.65625 L 13.625 -13.65625 Z M 13.625 0 "/></g></g></g></svg>